<svg version="1.1" xmlns="http://www.w3.org/2000/svg" viewBox="0 0 306.66668701171875 230.66665649414062" width="306.66668701171875" height="230.66665649414062" filter="invert(93%) hue-rotate(180deg)">
  <!-- svg-source:excalidraw -->
  
  <defs>
    <style class="style-fonts">
      @font-face {
        font-family: "Virgil";
        src: url("https://excalidraw.com/Virgil.woff2");
      }
      @font-face {
        font-family: "Cascadia";
        src: url("https://excalidraw.com/Cascadia.woff2");
      }
    </style>
    
  </defs>
  <rect x="0" y="0" width="306.66668701171875" height="230.66665649414062" fill="#000000"></rect><g transform="translate(130 218.66665649414062) rotate(0 23.333343505859375 -103.33332824707031)" stroke="none"><path fill="#ffffff" d="M -1.56,0 Q -1.56,0 -1.52,-5.55 -1.49,-11.11 -1.66,-19.21 -1.82,-27.30 -1.89,-38.24 -1.95,-49.17 -1.97,-61.48 -1.99,-73.80 -1.42,-89.79 -0.85,-105.78 0.34,-120.26 1.55,-134.74 3.02,-146.09 4.50,-157.44 5.89,-166.29 7.29,-175.14 8.46,-181.78 9.63,-188.42 10.32,-192.58 11.01,-196.73 11.49,-199.28 11.98,-201.83 12.31,-203.53 12.63,-205.23 12.91,-206.43 13.18,-207.62 13.44,-208.10 13.70,-208.57 13.80,-208.78 13.89,-208.98 14.04,-209.16 14.18,-209.34 14.36,-209.47 14.54,-209.61 14.75,-209.70 14.96,-209.79 15.18,-209.82 15.41,-209.86 15.63,-209.84 15.86,-209.82 16.07,-209.75 16.29,-209.68 16.48,-209.56 16.67,-209.44 16.83,-209.28 16.99,-209.11 17.10,-208.92 17.22,-208.72 17.28,-208.50 17.34,-208.28 17.35,-208.06 17.36,-207.83 17.32,-207.61 17.27,-207.39 18.56,-206.97 19.85,-206.56 23.14,-202.59 26.43,-198.63 31.40,-192.78 36.38,-186.92 42.34,-179.42 48.30,-171.92 54.84,-163.76 61.39,-155.59 68.00,-147.13 74.62,-138.67 83.94,-127.03 93.26,-115.39 101.07,-104.86 108.88,-94.33 115.28,-84.46 121.68,-74.59 127.28,-65.41 132.87,-56.23 136.61,-49.04 140.34,-41.85 142.88,-36.88 145.42,-31.92 147.06,-29.08 148.69,-26.23 149.79,-24.23 150.88,-22.23 151.21,-20.17 151.54,-18.10 147.61,-18.12 143.67,-18.14 138.25,-19.80 132.84,-21.47 120.39,-25.44 107.94,-29.42 94.59,-34.19 81.23,-38.96 67.27,-45.23 53.32,-51.50 38.78,-58.19 24.24,-64.88 12.28,-71.19 0.33,-77.50 -9.52,-82.67 -19.38,-87.83 -28.31,-91.74 -37.25,-95.64 -47.93,-99.60 -58.61,-103.55 -67.18,-106.58 -75.75,-109.60 -82.64,-111.84 -89.53,-114.09 -95.18,-116.20 -100.82,-118.31 -104.92,-119.78 -109.03,-121.25 -111.60,-122.47 -114.18,-123.70 -115.67,-124.32 -117.17,-124.93 -118.54,-125.32 -119.91,-125.71 -120.12,-125.80 -120.33,-125.89 -120.51,-126.03 -120.69,-126.17 -120.83,-126.35 -120.97,-126.52 -121.07,-126.73 -121.17,-126.94 -121.21,-127.16 -121.26,-127.39 -121.24,-127.61 -121.23,-127.84 -121.17,-128.06 -121.10,-128.28 -120.99,-128.48 -120.87,-128.67 -120.71,-128.84 -120.55,-129.00 -120.36,-129.12 -120.17,-129.24 -119.95,-129.31 -119.73,-129.38 -119.50,-129.40 -119.28,-129.42 -119.05,-129.38 -118.83,-129.34 -115.08,-129.31 -111.33,-129.29 -106.51,-128.98 -101.69,-128.67 -95.03,-128.13 -88.37,-127.60 -79.44,-127.17 -70.50,-126.74 -59.05,-126.54 -47.60,-126.35 -33.92,-126.26 -20.23,-126.17 -5.44,-126.90 9.34,-127.62 27.14,-128.50 44.94,-129.38 57.86,-130.32 70.78,-131.27 80.49,-132.05 90.20,-132.83 97.97,-133.35 105.75,-133.88 111.89,-134.67 118.03,-135.46 123.14,-136.18 128.25,-136.90 132.69,-137.78 137.12,-138.65 140.34,-139.40 143.56,-140.16 145.61,-141.02 147.65,-141.88 149.35,-142.54 151.04,-143.20 152.53,-143.72 154.01,-144.25 155.41,-144.71 156.80,-145.17 157.87,-145.68 158.95,-146.18 160.29,-146.56 161.64,-146.94 162.90,-147.55 164.16,-148.16 165.23,-148.24 166.30,-148.33 167.51,-146.72 168.73,-145.10 168.32,-143.68 167.91,-142.26 166.48,-140.65 165.05,-139.05 163.67,-137.70 162.30,-136.36 160.44,-134.86 158.59,-133.36 156.51,-131.30 154.43,-129.25 152.21,-126.52 149.99,-123.79 146.29,-119.53 142.60,-115.26 139.28,-111.72 135.96,-108.18 133.62,-105.39 131.27,-102.59 129.28,-100.42 127.29,-98.24 125.66,-96.55 124.04,-94.86 122.63,-93.05 121.22,-91.25 119.61,-89.46 118.00,-87.68 116.57,-85.99 115.15,-84.31 113.36,-82.41 111.57,-80.52 109.83,-78.92 108.08,-77.32 106.63,-75.74 105.18,-74.16 103.78,-72.68 102.39,-71.20 101.04,-69.78 99.70,-68.37 98.13,-66.98 96.55,-65.58 94.95,-64.08 93.35,-62.58 91.89,-61.29 90.43,-60.01 88.85,-58.72 87.26,-57.42 85.49,-55.61 83.72,-53.79 81.72,-52.18 79.72,-50.56 78.14,-49.30 76.55,-48.04 75.17,-46.76 73.78,-45.47 72.61,-44.44 71.44,-43.40 70.20,-42.38 68.95,-41.35 67.67,-40.33 66.38,-39.31 65.16,-38.04 63.93,-36.77 62.33,-35.40 60.72,-34.04 58.91,-32.37 57.10,-30.71 55.58,-29.09 54.06,-27.47 52.62,-25.97 51.18,-24.48 49.79,-23.20 48.40,-21.92 47.52,-20.97 46.63,-20.01 45.24,-18.83 43.85,-17.64 42.53,-16.41 41.22,-15.19 39.91,-13.78 38.60,-12.37 36.98,-10.94 35.37,-9.52 33.93,-8.30 32.50,-7.09 31.08,-6.11 29.65,-5.12 28.04,-4.29 26.42,-3.46 25.02,-2.72 23.62,-1.98 22.16,-1.40 20.70,-0.82 19.44,-0.21 18.17,0.38 16.23,1.34 14.28,2.30 13.08,2.57 11.87,2.84 10.38,3.39 8.89,3.95 7.71,4.07 6.52,4.20 4.94,4.50 3.35,4.80 0.98,3.60 -1.37,2.40 -1.72,2.12 -2.07,1.84 -2.31,1.46 -2.55,1.08 -2.66,0.64 -2.76,0.20 -2.72,-0.23 -2.68,-0.68 -2.50,-1.09 -2.32,-1.50 -2.02,-1.84 -1.72,-2.17 -1.33,-2.39 -0.94,-2.61 -0.50,-2.69 -0.05,-2.77 0.38,-2.71 0.83,-2.64 1.23,-2.44 1.63,-2.24 1.94,-1.92 2.26,-1.60 2.46,-1.20 2.65,-0.79 2.71,-0.35 2.77,0.09 2.68,0.53 2.59,0.97 2.37,1.36 2.15,1.75 1.81,2.04 1.48,2.34 1.06,2.52 0.65,2.69 0.20,2.73 -0.24,2.76 -0.67,2.65 -1.11,2.54 -1.48,2.29 -1.86,2.05 -2.14,1.70 -2.42,1.35 -2.57,0.92 -2.72,0.50 -2.73,0.05 -2.74,-0.39 -2.61,-0.81 -2.47,-1.24 -2.21,-1.61 -1.95,-1.97 -1.58,-2.23 -1.21,-2.49 -0.78,-2.62 -0.35,-2.75 0.09,-2.73 0.53,-2.72 0.95,-2.56 1.38,-2.40 1.38,-2.40 1.37,-2.40 2.22,-1.76 3.07,-1.12 4.77,-1.33 6.46,-1.54 7.58,-1.47 8.71,-1.39 9.88,-1.69 11.05,-1.98 12.76,-2.33 14.47,-2.68 15.47,-3.07 16.48,-3.46 17.91,-4.04 19.34,-4.63 20.62,-5.03 21.91,-5.43 23.35,-6.10 24.79,-6.77 26.25,-7.45 27.72,-8.14 29.03,-8.92 30.35,-9.69 31.74,-10.82 33.14,-11.95 34.58,-13.32 36.02,-14.69 37.39,-16.27 38.76,-17.84 40.14,-19.13 41.52,-20.41 42.87,-21.52 44.21,-22.62 45.26,-23.46 46.30,-24.30 47.65,-25.43 49.00,-26.57 50.39,-28.05 51.79,-29.52 53.32,-31.28 54.86,-33.04 56.65,-34.83 58.43,-36.62 59.87,-37.96 61.30,-39.29 62.72,-40.78 64.14,-42.27 65.47,-43.22 66.79,-44.18 68.09,-45.10 69.39,-46.01 70.59,-46.85 71.80,-47.68 73.29,-48.98 74.79,-50.29 76.37,-51.51 77.95,-52.73 79.80,-54.26 81.65,-55.78 83.52,-57.75 85.39,-59.71 86.95,-60.99 88.52,-62.27 89.96,-63.44 91.41,-64.62 93.03,-66.18 94.65,-67.75 96.15,-69.07 97.65,-70.39 99.03,-71.74 100.41,-73.10 101.82,-74.53 103.22,-75.96 104.75,-77.62 106.28,-79.29 107.95,-80.82 109.62,-82.35 111.35,-84.20 113.09,-86.05 114.53,-87.77 115.97,-89.49 117.51,-91.21 119.04,-92.93 120.52,-94.86 122.00,-96.79 123.58,-98.48 125.15,-100.16 127.07,-102.32 128.99,-104.48 131.34,-107.38 133.69,-110.28 136.90,-113.83 140.11,-117.37 143.67,-121.66 147.22,-125.95 149.43,-128.91 151.64,-131.87 153.68,-134.19 155.72,-136.51 157.24,-138.08 158.76,-139.65 159.91,-141.02 161.06,-142.39 162.55,-144.20 164.04,-146.00 165.08,-144.58 166.12,-143.16 164.71,-142.79 163.30,-142.42 162.06,-142.40 160.82,-142.37 159.28,-142.04 157.73,-141.70 156.33,-141.41 154.94,-141.12 153.46,-140.77 151.99,-140.43 150.33,-139.94 148.67,-139.45 146.42,-138.52 144.17,-137.59 140.90,-136.83 137.64,-136.06 133.13,-135.17 128.62,-134.28 123.49,-133.56 118.37,-132.83 112.15,-132.03 105.93,-131.22 98.17,-130.69 90.41,-130.16 80.69,-129.37 70.98,-128.58 58.03,-127.62 45.08,-126.66 27.28,-125.76 9.48,-124.86 -5.38,-124.11 -20.24,-123.36 -33.94,-123.42 -47.64,-123.47 -59.14,-123.62 -70.64,-123.77 -79.62,-124.14 -88.60,-124.50 -95.23,-124.95 -101.86,-125.39 -106.67,-125.58 -111.47,-125.77 -114.48,-125.83 -117.49,-125.90 -118.70,-125.80 -119.91,-125.71 -120.12,-125.80 -120.33,-125.89 -120.51,-126.03 -120.69,-126.17 -120.83,-126.35 -120.97,-126.52 -121.07,-126.73 -121.17,-126.94 -121.21,-127.16 -121.26,-127.39 -121.24,-127.61 -121.23,-127.84 -121.17,-128.06 -121.10,-128.28 -120.99,-128.48 -120.87,-128.67 -120.71,-128.84 -120.55,-129.00 -120.36,-129.12 -120.17,-129.24 -119.95,-129.31 -119.73,-129.38 -119.50,-129.40 -119.28,-129.42 -119.05,-129.38 -118.83,-129.34 -118.41,-128.94 -117.99,-128.53 -116.92,-128.09 -115.86,-127.65 -114.45,-126.86 -113.04,-126.08 -110.59,-124.90 -108.14,-123.73 -104.02,-122.26 -99.89,-120.79 -94.30,-118.69 -88.71,-116.60 -81.79,-114.35 -74.87,-112.10 -66.28,-109.08 -57.69,-106.05 -46.94,-102.07 -36.18,-98.09 -27.15,-94.16 -18.13,-90.22 -8.26,-85.06 1.60,-79.91 13.49,-73.64 25.39,-67.38 39.93,-60.72 54.47,-54.06 68.33,-47.87 82.20,-41.67 95.52,-36.96 108.84,-32.25 121.28,-28.34 133.72,-24.44 139.06,-22.88 144.40,-21.33 146.48,-21.15 148.57,-20.97 147.49,-22.94 146.41,-24.92 144.74,-27.82 143.07,-30.72 140.53,-35.67 137.99,-40.62 134.30,-47.73 130.60,-54.85 125.02,-63.99 119.44,-73.13 113.08,-82.93 106.72,-92.72 98.93,-103.21 91.14,-113.69 81.80,-125.33 72.46,-136.97 65.84,-145.41 59.21,-153.85 52.64,-161.99 46.07,-170.14 40.11,-177.58 34.15,-185.01 29.12,-190.84 24.09,-196.67 20.96,-200.36 17.84,-204.05 15.77,-206.31 13.70,-208.57 13.80,-208.78 13.89,-208.98 14.04,-209.16 14.18,-209.34 14.36,-209.47 14.54,-209.61 14.75,-209.70 14.96,-209.79 15.18,-209.82 15.41,-209.86 15.63,-209.84 15.86,-209.82 16.07,-209.75 16.29,-209.68 16.48,-209.56 16.67,-209.44 16.83,-209.28 16.99,-209.11 17.10,-208.92 17.22,-208.72 17.28,-208.50 17.34,-208.28 17.35,-208.06 17.36,-207.83 17.32,-207.61 17.27,-207.39 16.84,-206.94 16.41,-206.49 15.96,-205.52 15.52,-204.54 15.05,-202.94 14.58,-201.33 14.10,-198.82 13.62,-196.30 12.93,-192.13 12.25,-187.96 11.08,-181.35 9.92,-174.73 8.54,-165.91 7.16,-157.09 5.70,-145.81 4.24,-134.52 3.05,-120.10 1.86,-105.68 1.31,-89.74 0.76,-73.80 0.81,-61.50 0.86,-49.19 0.96,-38.28 1.06,-27.37 1.27,-19.24 1.49,-11.11 1.52,-5.55 1.56,0 1.53,0.18 1.51,0.37 1.45,0.54 1.38,0.72 1.27,0.88 1.16,1.03 1.02,1.16 0.88,1.28 0.72,1.37 0.55,1.46 0.37,1.50 0.18,1.55 -0.00,1.55 -0.18,1.55 -0.37,1.50 -0.55,1.46 -0.72,1.37 -0.88,1.28 -1.02,1.16 -1.16,1.03 -1.27,0.88 -1.38,0.72 -1.45,0.54 -1.51,0.37 -1.53,0.18 -1.56,-0.00 -1.56,-0.00 L -1.56,0 Z"></path></g></svg>