<svg version="1.1" xmlns="http://www.w3.org/2000/svg" viewBox="0 0 304 333.3333435058594" width="304" height="333.3333435058594" filter="invert(93%) hue-rotate(180deg)">
  <!-- svg-source:excalidraw -->
  
  <defs>
    <style class="style-fonts">
      @font-face {
        font-family: "Virgil";
        src: url("https://excalidraw.com/Virgil.woff2");
      }
      @font-face {
        font-family: "Cascadia";
        src: url("https://excalidraw.com/Cascadia.woff2");
      }
    </style>
    
  </defs>
  <rect x="0" y="0" width="304" height="333.3333435058594" fill="#000000"></rect><g transform="translate(22.66668701171875 104.66667175292969) rotate(0 129.33331298828125 62)" stroke="none"><path fill="#ffffff" d="M 1.42,0.64 Q 1.42,0.64 0.43,2.74 -0.55,4.83 -1.75,7.44 -2.94,10.04 -4.22,13.05 -5.49,16.06 -6.80,19.43 -8.11,22.80 -9.03,26.65 -9.95,30.49 -10.34,36.46 -10.73,42.43 -10.90,47.67 -11.07,52.92 -11.15,58.40 -11.22,63.89 -10.87,69.24 -10.53,74.59 -9.62,80.08 -8.71,85.57 -7.56,91.16 -6.41,96.76 -4.78,102.55 -3.15,108.34 -0.55,115.77 2.04,123.19 4.30,129.62 6.56,136.05 8.85,141.43 11.13,146.81 13.44,151.37 15.74,155.93 18.25,160.55 20.76,165.17 23.86,168.76 26.96,172.34 30.04,176.03 33.12,179.71 35.58,182.62 38.03,185.52 40.40,188.07 42.76,190.63 45.07,192.63 47.38,194.64 49.66,196.23 51.95,197.83 54.46,199.47 56.98,201.12 59.40,202.79 61.83,204.46 64.70,205.88 67.56,207.31 70.52,208.69 73.48,210.08 77.37,211.41 81.25,212.74 85.94,213.88 90.62,215.01 97.34,215.68 104.06,216.35 110.18,216.63 116.29,216.92 122.02,215.90 127.75,214.89 133.45,213.31 139.14,211.74 144.84,210.11 150.54,208.48 156.00,206.64 161.46,204.81 167.05,202.88 172.63,200.95 178.27,198.97 183.90,197.00 189.77,195.20 195.64,193.40 201.33,191.12 207.02,188.84 211.15,186.92 215.28,185.00 219.37,183.21 223.45,181.43 226.23,179.57 229.01,177.72 231.12,175.82 233.22,173.92 235.29,171.95 237.35,169.98 239.14,167.84 240.94,165.71 242.46,163.66 243.99,161.62 245.60,159.40 247.21,157.18 249.01,154.00 250.80,150.81 252.73,147.33 254.66,143.85 256.41,139.74 258.16,135.64 260.05,130.63 261.95,125.63 263.51,120.28 265.07,114.94 265.91,109.47 266.76,104.00 267.70,98.37 268.64,92.75 269.03,87.36 269.43,81.96 269.60,76.60 269.76,71.25 269.26,64.62 268.76,57.99 267.98,52.70 267.19,47.41 266.48,42.85 265.76,38.29 264.70,34.30 263.64,30.32 262.80,26.07 261.95,21.82 260.47,17.82 258.99,13.83 257.40,9.81 255.80,5.78 253.80,1.41 251.79,-2.94 249.98,-6.52 248.18,-10.09 246.46,-13.12 244.74,-16.16 243.24,-18.80 241.74,-21.44 240.15,-24.08 238.56,-26.72 236.58,-29.33 234.60,-31.93 232.61,-34.39 230.61,-36.84 228.79,-39.25 226.96,-41.66 224.69,-44.17 222.43,-46.68 220.69,-48.52 218.95,-50.36 216.93,-52.05 214.90,-53.74 212.69,-55.42 210.49,-57.10 207.64,-59.16 204.79,-61.21 201.86,-63.23 198.93,-65.25 196.19,-66.85 193.45,-68.45 190.89,-70.12 188.34,-71.79 185.74,-73.44 183.14,-75.10 181.05,-76.59 178.95,-78.08 176.39,-79.64 173.83,-81.20 171.77,-82.44 169.70,-83.69 167.57,-84.56 165.44,-85.43 162.84,-86.18 160.24,-86.93 157.59,-87.63 154.93,-88.34 151.87,-89.22 148.81,-90.10 146.40,-90.66 143.98,-91.21 141.99,-91.62 140.00,-92.04 138.26,-92.15 136.52,-92.26 134.21,-92.55 131.90,-92.84 130.00,-92.93 128.10,-93.01 125.59,-93.08 123.07,-93.15 120.27,-93.19 117.47,-93.23 114.55,-93.25 111.64,-93.27 108.76,-92.91 105.88,-92.54 103.09,-92.19 100.29,-91.85 97.82,-91.33 95.34,-90.81 93.16,-90.21 90.97,-89.61 87.58,-88.41 84.19,-87.21 80.79,-86.11 77.40,-85.02 73.89,-83.61 70.39,-82.21 66.79,-80.65 63.19,-79.10 59.56,-77.48 55.92,-75.86 52.24,-74.39 48.56,-72.93 45.94,-71.39 43.32,-69.86 41.22,-68.61 39.11,-67.37 37.12,-65.92 35.13,-64.46 33.34,-62.91 31.56,-61.36 30.04,-59.93 28.51,-58.50 27.12,-57.10 25.73,-55.71 24.63,-54.36 23.54,-53.01 22.04,-51.47 20.54,-49.92 19.35,-48.78 18.16,-47.63 16.96,-46.29 15.76,-44.95 14.93,-43.78 14.10,-42.61 13.15,-41.45 12.19,-40.29 11.49,-39.28 10.80,-38.26 10.09,-37.34 9.38,-36.43 8.38,-35.03 7.38,-33.63 6.80,-32.14 6.23,-30.64 5.41,-29.39 4.59,-28.14 3.94,-27.00 3.29,-25.86 2.59,-24.72 1.89,-23.57 0.88,-21.53 -0.13,-19.48 -0.82,-18.55 -1.52,-17.61 -1.61,-16.09 -1.71,-14.57 -1.97,-13.50 -2.23,-12.42 -2.58,-11.22 -2.93,-10.02 -3.62,-8.53 -4.31,-7.03 -4.52,-5.34 -4.73,-3.64 -4.71,-2.38 -4.70,-1.12 -4.67,0.13 -4.63,1.38 -3.94,4.15 -3.25,6.91 -3.27,7.47 -3.30,8.02 -3.50,8.54 -3.69,9.06 -4.05,9.49 -4.40,9.92 -4.88,10.21 -5.35,10.50 -5.89,10.63 -6.43,10.76 -6.99,10.70 -7.54,10.65 -8.05,10.42 -8.55,10.20 -8.96,9.82 -9.37,9.44 -9.64,8.95 -9.90,8.47 -10.00,7.92 -10.10,7.37 -10.02,6.82 -9.93,6.27 -9.68,5.78 -9.42,5.28 -9.02,4.90 -8.63,4.51 -8.12,4.27 -7.62,4.03 -7.07,3.96 -6.52,3.89 -5.97,4.01 -5.43,4.12 -4.95,4.40 -4.47,4.68 -4.10,5.10 -3.74,5.52 -3.53,6.03 -3.31,6.55 -3.28,7.10 -3.24,7.66 -3.38,8.19 -3.52,8.73 -3.83,9.20 -4.14,9.66 -4.58,10.00 -5.01,10.34 -5.54,10.53 -6.06,10.71 -6.62,10.72 -7.18,10.73 -7.70,10.56 -8.23,10.38 -8.68,10.05 -9.13,9.72 -9.45,9.27 -9.76,8.81 -9.92,8.28 -10.07,7.74 -10.07,7.74 -10.07,7.74 -10.40,6.59 -10.73,5.44 -11.05,3.78 -11.38,2.11 -11.34,0.79 -11.30,-0.53 -11.23,-1.73 -11.16,-2.94 -10.89,-4.44 -10.62,-5.94 -10.40,-7.06 -10.18,-8.17 -9.63,-9.43 -9.08,-10.70 -8.67,-11.76 -8.26,-12.82 -7.77,-14.01 -7.27,-15.19 -7.11,-16.40 -6.95,-17.62 -6.44,-19.21 -5.94,-20.79 -4.82,-22.39 -3.70,-23.98 -3.13,-25.15 -2.56,-26.33 -1.90,-27.38 -1.24,-28.43 -0.51,-29.74 0.22,-31.06 1.25,-32.70 2.28,-34.33 3.47,-36.17 4.66,-38.00 6.10,-39.39 7.54,-40.77 8.44,-41.82 9.33,-42.87 10.31,-43.85 11.29,-44.84 12.31,-46.00 13.33,-47.17 14.68,-48.63 16.03,-50.08 17.23,-51.01 18.43,-51.93 19.85,-53.46 21.27,-54.98 22.54,-56.34 23.80,-57.69 25.25,-59.06 26.71,-60.43 28.27,-61.88 29.83,-63.34 31.71,-64.96 33.58,-66.59 35.68,-68.11 37.77,-69.63 39.89,-70.88 42.00,-72.13 44.79,-73.75 47.58,-75.37 51.21,-76.82 54.85,-78.26 58.50,-79.89 62.15,-81.52 65.78,-83.09 69.41,-84.66 72.99,-86.10 76.58,-87.54 79.94,-88.62 83.30,-89.71 86.78,-90.95 90.26,-92.18 92.53,-92.80 94.79,-93.43 97.37,-93.97 99.96,-94.52 102.75,-94.88 105.54,-95.24 108.59,-95.63 111.65,-96.03 114.57,-96.03 117.49,-96.03 120.31,-96.03 123.12,-96.03 125.70,-96.00 128.28,-95.97 130.25,-95.83 132.23,-95.68 134.52,-95.43 136.82,-95.19 138.69,-94.93 140.57,-94.68 142.57,-94.23 144.57,-93.77 147.05,-93.20 149.53,-92.63 152.57,-91.75 155.61,-90.88 158.29,-90.16 160.97,-89.45 163.71,-88.65 166.44,-87.86 168.75,-86.90 171.06,-85.94 173.13,-84.69 175.19,-83.44 177.84,-81.83 180.48,-80.22 182.52,-78.77 184.55,-77.32 187.17,-75.65 189.78,-73.99 192.28,-72.35 194.77,-70.72 197.60,-69.07 200.42,-67.41 203.38,-65.38 206.33,-63.34 209.21,-61.27 212.08,-59.19 214.33,-57.47 216.58,-55.76 218.72,-53.96 220.86,-52.16 222.62,-50.30 224.37,-48.44 226.71,-45.84 229.05,-43.25 230.85,-40.88 232.65,-38.50 234.67,-36.01 236.69,-33.52 238.75,-30.80 240.81,-28.08 242.42,-25.41 244.02,-22.74 245.53,-20.09 247.03,-17.45 248.78,-14.36 250.52,-11.27 252.35,-7.66 254.18,-4.04 256.21,0.38 258.25,4.81 259.85,8.87 261.45,12.92 262.99,17.11 264.52,21.30 265.35,25.47 266.18,29.65 267.27,33.76 268.35,37.88 269.07,42.45 269.79,47.03 270.59,52.41 271.38,57.80 271.89,64.56 272.39,71.33 272.22,76.74 272.05,82.15 271.64,87.67 271.23,93.18 270.29,98.79 269.35,104.40 268.47,110.04 267.59,115.67 266.00,121.12 264.41,126.56 262.49,131.61 260.57,136.67 258.76,140.89 256.96,145.12 255.02,148.61 253.09,152.11 251.21,155.41 249.33,158.72 247.71,160.95 246.09,163.19 244.52,165.29 242.94,167.40 241.05,169.64 239.16,171.88 237.07,173.87 234.98,175.87 232.72,177.89 230.46,179.91 227.49,181.87 224.51,183.83 220.45,185.60 216.39,187.38 212.19,189.33 207.99,191.28 202.20,193.59 196.41,195.91 190.59,197.69 184.77,199.48 179.13,201.46 173.49,203.43 167.89,205.36 162.30,207.30 156.78,209.15 151.26,211.00 145.55,212.64 139.84,214.27 134.02,215.87 128.21,217.47 122.19,218.51 116.18,219.55 109.99,219.25 103.80,218.96 96.90,218.26 90.01,217.57 85.20,216.40 80.40,215.23 76.39,213.84 72.37,212.46 69.38,211.06 66.39,209.66 63.37,208.14 60.35,206.62 57.94,204.97 55.54,203.31 52.99,201.65 50.45,199.98 48.05,198.30 45.65,196.62 43.24,194.51 40.84,192.41 38.43,189.81 36.03,187.22 33.57,184.31 31.11,181.40 28.04,177.73 24.97,174.05 21.71,170.25 18.45,166.44 15.92,161.78 13.39,157.12 11.05,152.48 8.71,147.84 6.40,142.38 4.08,136.93 1.82,130.49 -0.44,124.06 -3.06,116.56 -5.69,109.06 -7.34,103.17 -9.00,97.29 -10.16,91.64 -11.32,86.00 -12.25,80.38 -13.17,74.76 -13.53,69.31 -13.89,63.85 -13.82,58.34 -13.75,52.83 -13.58,47.54 -13.42,42.25 -13.01,36.06 -12.60,29.86 -11.65,25.84 -10.69,21.81 -9.39,18.39 -8.09,14.97 -6.83,11.92 -5.58,8.86 -4.43,6.23 -3.27,3.59 -2.34,1.47 -1.42,-0.64 -1.32,-0.80 -1.22,-0.96 -1.09,-1.10 -0.95,-1.23 -0.79,-1.33 -0.63,-1.42 -0.45,-1.48 -0.27,-1.53 -0.08,-1.54 0.10,-1.55 0.28,-1.52 0.47,-1.48 0.64,-1.41 0.81,-1.33 0.96,-1.21 1.10,-1.10 1.22,-0.95 1.33,-0.80 1.41,-0.63 1.49,-0.45 1.52,-0.27 1.55,-0.08 1.54,0.09 1.53,0.28 1.47,0.46 1.42,0.64 1.42,0.64 L 1.42,0.64 Z"></path></g></svg>